<?xml version="1.0" encoding="UTF-8" standalone="no"?>
<!DOCTYPE svg PUBLIC "-//W3C//DTD SVG 1.1//EN"
 "http://www.w3.org/Graphics/SVG/1.1/DTD/svg11.dtd">
<!-- Generated by graphviz version 2.38.0 (20140413.2041)
 -->
<!-- Title: snakemake_dag Pages: 1 -->
<svg width="1333pt" height="620pt"
 viewBox="0.00 0.00 1333.00 620.00" xmlns="http://www.w3.org/2000/svg" xmlns:xlink="http://www.w3.org/1999/xlink">
<g id="graph0" class="graph" transform="scale(1 1) rotate(0) translate(4 616)">
<title>snakemake_dag</title>
<polygon fill="white" stroke="none" points="-4,4 -4,-616 1329,-616 1329,4 -4,4"/>
<!-- 0 -->
<g id="node1" class="node"><title>0</title>
<path fill="none" stroke="#d8b456" stroke-width="2" d="M760,-36C760,-36 688,-36 688,-36 682,-36 676,-30 676,-24 676,-24 676,-12 676,-12 676,-6 682,-0 688,-0 688,-0 760,-0 760,-0 766,-0 772,-6 772,-12 772,-12 772,-24 772,-24 772,-30 766,-36 760,-36"/>
<text text-anchor="middle" x="724" y="-15.5" font-family="sans" font-size="10.00">make_summary</text>
</g>
<!-- 1 -->
<g id="node2" class="node"><title>1</title>
<path fill="none" stroke="#d89c56" stroke-width="2" d="M84,-108C84,-108 12,-108 12,-108 6,-108 0,-102 0,-96 0,-96 0,-84 0,-84 0,-78 6,-72 12,-72 12,-72 84,-72 84,-72 90,-72 96,-78 96,-84 96,-84 96,-96 96,-96 96,-102 90,-108 84,-108"/>
<text text-anchor="middle" x="48" y="-87.5" font-family="sans" font-size="10.00">make_rulegraph</text>
</g>
<!-- 1&#45;&gt;0 -->
<g id="edge10" class="edge"><title>1&#45;&gt;0</title>
<path fill="none" stroke="grey" stroke-width="2" d="M96.2065,-74.8721C100.843,-73.7884 105.495,-72.8051 110,-72 312.026,-35.8922 556.01,-24.1389 665.658,-20.515"/>
<polygon fill="grey" stroke="grey" stroke-width="2" points="665.961,-24.0072 675.844,-20.1892 665.737,-17.0108 665.961,-24.0072"/>
</g>
<!-- 2 -->
<g id="node3" class="node"><title>2</title>
<path fill="none" stroke="#d8cb56" stroke-width="2" d="M268.5,-612C268.5,-612 155.5,-612 155.5,-612 149.5,-612 143.5,-606 143.5,-600 143.5,-600 143.5,-588 143.5,-588 143.5,-582 149.5,-576 155.5,-576 155.5,-576 268.5,-576 268.5,-576 274.5,-576 280.5,-582 280.5,-588 280.5,-588 280.5,-600 280.5,-600 280.5,-606 274.5,-612 268.5,-612"/>
<text text-anchor="middle" x="212" y="-591.5" font-family="sans" font-size="10.00">get_codon_variant_table</text>
</g>
<!-- 2&#45;&gt;0 -->
<g id="edge1" class="edge"><title>2&#45;&gt;0</title>
<path fill="none" stroke="grey" stroke-width="2" d="M190.587,-575.893C179.664,-566.28 166.852,-553.517 158,-540 134.801,-504.577 124,-493.344 124,-451 124,-451 124,-451 124,-161 124,-96.0183 179.696,-96.209 240,-72 316.07,-41.4615 554.674,-26.7752 665.879,-21.4496"/>
<polygon fill="grey" stroke="grey" stroke-width="2" points="666.089,-24.9438 675.913,-20.978 665.76,-17.9515 666.089,-24.9438"/>
</g>
<!-- 3 -->
<g id="node4" class="node"><title>3</title>
<path fill="none" stroke="#569ad8" stroke-width="2" d="M344.5,-468C344.5,-468 225.5,-468 225.5,-468 219.5,-468 213.5,-462 213.5,-456 213.5,-456 213.5,-444 213.5,-444 213.5,-438 219.5,-432 225.5,-432 225.5,-432 344.5,-432 344.5,-432 350.5,-432 356.5,-438 356.5,-444 356.5,-444 356.5,-456 356.5,-456 356.5,-462 350.5,-468 344.5,-468"/>
<text text-anchor="middle" x="285" y="-447.5" font-family="sans" font-size="10.00">aggregate_variant_counts</text>
</g>
<!-- 2&#45;&gt;3 -->
<g id="edge18" class="edge"><title>2&#45;&gt;3</title>
<path fill="none" stroke="grey" stroke-width="2" d="M234.337,-575.836C245.151,-566.388 257.407,-553.793 265,-540 275.534,-520.864 280.523,-496.513 282.884,-478.121"/>
<polygon fill="grey" stroke="grey" stroke-width="2" points="286.375,-478.388 283.992,-468.065 279.417,-477.621 286.375,-478.388"/>
</g>
<!-- 4 -->
<g id="node5" class="node"><title>4</title>
<path fill="none" stroke="#b6d856" stroke-width="2" d="M244.5,-540C244.5,-540 179.5,-540 179.5,-540 173.5,-540 167.5,-534 167.5,-528 167.5,-528 167.5,-516 167.5,-516 167.5,-510 173.5,-504 179.5,-504 179.5,-504 244.5,-504 244.5,-504 250.5,-504 256.5,-510 256.5,-516 256.5,-516 256.5,-528 256.5,-528 256.5,-534 250.5,-540 244.5,-540"/>
<text text-anchor="middle" x="212" y="-519.5" font-family="sans" font-size="10.00">count_variants</text>
</g>
<!-- 2&#45;&gt;4 -->
<g id="edge20" class="edge"><title>2&#45;&gt;4</title>
<path fill="none" stroke="grey" stroke-width="2" d="M212,-575.697C212,-567.983 212,-558.712 212,-550.112"/>
<polygon fill="grey" stroke="grey" stroke-width="2" points="215.5,-550.104 212,-540.104 208.5,-550.104 215.5,-550.104"/>
</g>
<!-- 3&#45;&gt;0 -->
<g id="edge11" class="edge"><title>3&#45;&gt;0</title>
<path fill="none" stroke="grey" stroke-width="2" d="M285,-431.851C285.243,-384.709 287.602,-254.135 306,-216 346.295,-132.476 374.693,-114.726 457,-72 523.14,-37.6666 609.102,-25.5207 665.373,-21.2553"/>
<polygon fill="grey" stroke="grey" stroke-width="2" points="665.791,-24.7347 675.523,-20.547 665.304,-17.7517 665.791,-24.7347"/>
</g>
<!-- 5 -->
<g id="node6" class="node"><title>5</title>
<path fill="none" stroke="#56b1d8" stroke-width="2" d="M259.5,-324C259.5,-324 164.5,-324 164.5,-324 158.5,-324 152.5,-318 152.5,-312 152.5,-312 152.5,-300 152.5,-300 152.5,-294 158.5,-288 164.5,-288 164.5,-288 259.5,-288 259.5,-288 265.5,-288 271.5,-294 271.5,-300 271.5,-300 271.5,-312 271.5,-312 271.5,-318 265.5,-324 259.5,-324"/>
<text text-anchor="middle" x="212" y="-303.5" font-family="sans" font-size="10.00">counts_to_cells_ratio</text>
</g>
<!-- 3&#45;&gt;5 -->
<g id="edge21" class="edge"><title>3&#45;&gt;5</title>
<path fill="none" stroke="grey" stroke-width="2" d="M276.194,-431.871C263.589,-407.35 240.291,-362.032 225.499,-333.259"/>
<polygon fill="grey" stroke="grey" stroke-width="2" points="228.522,-331.483 220.837,-324.189 222.296,-334.683 228.522,-331.483"/>
</g>
<!-- 6 -->
<g id="node7" class="node"><title>6</title>
<path fill="none" stroke="#70d856" stroke-width="2" d="M970.5,-396C970.5,-396 893.5,-396 893.5,-396 887.5,-396 881.5,-390 881.5,-384 881.5,-384 881.5,-372 881.5,-372 881.5,-366 887.5,-360 893.5,-360 893.5,-360 970.5,-360 970.5,-360 976.5,-360 982.5,-366 982.5,-372 982.5,-372 982.5,-384 982.5,-384 982.5,-390 976.5,-396 970.5,-396"/>
<text text-anchor="middle" x="932" y="-375.5" font-family="sans" font-size="10.00">counts_to_scores</text>
</g>
<!-- 3&#45;&gt;6 -->
<g id="edge25" class="edge"><title>3&#45;&gt;6</title>
<path fill="none" stroke="grey" stroke-width="2" d="M356.712,-441.241C484.91,-427.371 751.166,-398.565 871.103,-385.589"/>
<polygon fill="grey" stroke="grey" stroke-width="2" points="871.644,-389.05 881.21,-384.495 870.891,-382.091 871.644,-389.05"/>
</g>
<!-- 4&#45;&gt;3 -->
<g id="edge19" class="edge"><title>4&#45;&gt;3</title>
<path fill="none" stroke="grey" stroke-width="2" d="M230.045,-503.697C239.062,-495.05 250.118,-484.449 259.943,-475.027"/>
<polygon fill="grey" stroke="grey" stroke-width="2" points="262.367,-477.552 267.163,-468.104 257.522,-472.499 262.367,-477.552"/>
</g>
<!-- 5&#45;&gt;0 -->
<g id="edge9" class="edge"><title>5&#45;&gt;0</title>
<path fill="none" stroke="grey" stroke-width="2" d="M210.616,-287.96C208.113,-244.39 208.164,-128.392 273,-72 302.124,-46.669 550.623,-29.0776 665.811,-22.2085"/>
<polygon fill="grey" stroke="grey" stroke-width="2" points="666.089,-25.6982 675.866,-21.6159 665.677,-18.7103 666.089,-25.6982"/>
</g>
<!-- 6&#45;&gt;0 -->
<g id="edge7" class="edge"><title>6&#45;&gt;0</title>
<path fill="none" stroke="grey" stroke-width="2" d="M982.685,-371.52C1057.05,-360.358 1187,-327.603 1187,-235 1187,-235 1187,-235 1187,-161 1187,-108.109 1154.64,-96.9386 1108,-72 1052.87,-42.5233 875.515,-27.9167 782.374,-22.1217"/>
<polygon fill="grey" stroke="grey" stroke-width="2" points="782.459,-18.6205 772.265,-21.5068 782.034,-25.6076 782.459,-18.6205"/>
</g>
<!-- 10 -->
<g id="node11" class="node"><title>10</title>
<path fill="none" stroke="#56c9d8" stroke-width="2" d="M872.5,-324C872.5,-324 769.5,-324 769.5,-324 763.5,-324 757.5,-318 757.5,-312 757.5,-312 757.5,-300 757.5,-300 757.5,-294 763.5,-288 769.5,-288 769.5,-288 872.5,-288 872.5,-288 878.5,-288 884.5,-294 884.5,-300 884.5,-300 884.5,-312 884.5,-312 884.5,-318 878.5,-324 872.5,-324"/>
<text text-anchor="middle" x="821" y="-303.5" font-family="sans" font-size="10.00">scores_to_frac_escape</text>
</g>
<!-- 6&#45;&gt;10 -->
<g id="edge26" class="edge"><title>6&#45;&gt;10</title>
<path fill="none" stroke="grey" stroke-width="2" d="M904.846,-359.876C890.467,-350.808 872.619,-339.552 857.09,-329.759"/>
<polygon fill="grey" stroke="grey" stroke-width="2" points="858.584,-326.564 848.258,-324.19 854.85,-332.484 858.584,-326.564"/>
</g>
<!-- 7 -->
<g id="node8" class="node"><title>7</title>
<path fill="none" stroke="#88d856" stroke-width="2" d="M1212,-468C1212,-468 1126,-468 1126,-468 1120,-468 1114,-462 1114,-456 1114,-456 1114,-444 1114,-444 1114,-438 1120,-432 1126,-432 1126,-432 1212,-432 1212,-432 1218,-432 1224,-438 1224,-444 1224,-444 1224,-456 1224,-456 1224,-462 1218,-468 1212,-468"/>
<text text-anchor="middle" x="1169" y="-447.5" font-family="sans" font-size="10.00">get_mut_bind_expr</text>
</g>
<!-- 7&#45;&gt;6 -->
<g id="edge22" class="edge"><title>7&#45;&gt;6</title>
<path fill="none" stroke="grey" stroke-width="2" d="M1113.73,-432.676C1077.45,-421.959 1029.97,-407.937 992.646,-396.912"/>
<polygon fill="grey" stroke="grey" stroke-width="2" points="993.479,-393.509 982.898,-394.033 991.497,-400.222 993.479,-393.509"/>
</g>
<!-- 12 -->
<g id="node13" class="node"><title>12</title>
<path fill="none" stroke="#56d86b" stroke-width="2" d="M1013,-180C1013,-180 945,-180 945,-180 939,-180 933,-174 933,-168 933,-168 933,-156 933,-156 933,-150 939,-144 945,-144 945,-144 1013,-144 1013,-144 1019,-144 1025,-150 1025,-156 1025,-156 1025,-168 1025,-168 1025,-174 1019,-180 1013,-180"/>
<text text-anchor="middle" x="979" y="-159.5" font-family="sans" font-size="10.00">escape_profiles</text>
</g>
<!-- 7&#45;&gt;12 -->
<g id="edge28" class="edge"><title>7&#45;&gt;12</title>
<path fill="none" stroke="grey" stroke-width="2" d="M1157.68,-431.966C1125.68,-383.795 1034.38,-246.366 996.159,-188.829"/>
<polygon fill="grey" stroke="grey" stroke-width="2" points="998.946,-186.699 990.497,-180.306 993.116,-190.573 998.946,-186.699"/>
</g>
<!-- 8 -->
<g id="node9" class="node"><title>8</title>
<path fill="none" stroke="#d85656" stroke-width="2" d="M911.5,-468C911.5,-468 836.5,-468 836.5,-468 830.5,-468 824.5,-462 824.5,-456 824.5,-456 824.5,-444 824.5,-444 824.5,-438 830.5,-432 836.5,-432 836.5,-432 911.5,-432 911.5,-432 917.5,-432 923.5,-438 923.5,-444 923.5,-444 923.5,-456 923.5,-456 923.5,-462 917.5,-468 911.5,-468"/>
<text text-anchor="middle" x="874" y="-447.5" font-family="sans" font-size="10.00">get_variant_expr</text>
</g>
<!-- 8&#45;&gt;6 -->
<g id="edge23" class="edge"><title>8&#45;&gt;6</title>
<path fill="none" stroke="grey" stroke-width="2" d="M888.337,-431.697C895.291,-423.305 903.77,-413.07 911.401,-403.861"/>
<polygon fill="grey" stroke="grey" stroke-width="2" points="914.143,-406.038 917.828,-396.104 908.753,-401.571 914.143,-406.038"/>
</g>
<!-- 9 -->
<g id="node10" class="node"><title>9</title>
<path fill="none" stroke="#ced856" stroke-width="2" d="M1028,-468C1028,-468 954,-468 954,-468 948,-468 942,-462 942,-456 942,-456 942,-444 942,-444 942,-438 948,-432 954,-432 954,-432 1028,-432 1028,-432 1034,-432 1040,-438 1040,-444 1040,-444 1040,-456 1040,-456 1040,-462 1034,-468 1028,-468"/>
<text text-anchor="middle" x="991" y="-447.5" font-family="sans" font-size="10.00">get_variant_bind</text>
</g>
<!-- 9&#45;&gt;6 -->
<g id="edge24" class="edge"><title>9&#45;&gt;6</title>
<path fill="none" stroke="grey" stroke-width="2" d="M976.416,-431.697C969.342,-423.305 960.717,-413.07 952.955,-403.861"/>
<polygon fill="grey" stroke="grey" stroke-width="2" points="955.537,-401.495 946.417,-396.104 950.185,-406.006 955.537,-401.495"/>
</g>
<!-- 10&#45;&gt;0 -->
<g id="edge5" class="edge"><title>10&#45;&gt;0</title>
<path fill="none" stroke="grey" stroke-width="2" d="M757.436,-302.747C714.424,-298.024 658.929,-285.257 622,-252 571.091,-206.154 579.428,-175.373 567,-108 564.097,-92.2655 557.669,-84.9977 567,-72 589.369,-40.8389 631.028,-27.7603 665.815,-22.3811"/>
<polygon fill="grey" stroke="grey" stroke-width="2" points="666.456,-25.826 675.89,-21.0032 665.508,-18.8905 666.456,-25.826"/>
</g>
<!-- 11 -->
<g id="node12" class="node"><title>11</title>
<path fill="none" stroke="#5682d8" stroke-width="2" d="M975,-252C975,-252 861,-252 861,-252 855,-252 849,-246 849,-240 849,-240 849,-228 849,-228 849,-222 855,-216 861,-216 861,-216 975,-216 975,-216 981,-216 987,-222 987,-228 987,-228 987,-240 987,-240 987,-246 981,-252 975,-252"/>
<text text-anchor="middle" x="918" y="-231.5" font-family="sans" font-size="10.00">call_strong_escape_sites</text>
</g>
<!-- 10&#45;&gt;11 -->
<g id="edge27" class="edge"><title>10&#45;&gt;11</title>
<path fill="none" stroke="grey" stroke-width="2" d="M844.978,-287.697C857.311,-278.796 872.516,-267.823 885.853,-258.199"/>
<polygon fill="grey" stroke="grey" stroke-width="2" points="888.237,-260.794 894.298,-252.104 884.141,-255.118 888.237,-260.794"/>
</g>
<!-- 10&#45;&gt;12 -->
<g id="edge30" class="edge"><title>10&#45;&gt;12</title>
<path fill="none" stroke="grey" stroke-width="2" d="M884.648,-303.688C923.544,-299.177 970.558,-286.289 996,-252 1009.39,-233.952 1002.54,-208.331 993.873,-189.209"/>
<polygon fill="grey" stroke="grey" stroke-width="2" points="996.967,-187.569 989.411,-180.142 990.686,-190.66 996.967,-187.569"/>
</g>
<!-- 13 -->
<g id="node14" class="node"><title>13</title>
<path fill="none" stroke="#56d882" stroke-width="2" d="M683.5,-108C683.5,-108 588.5,-108 588.5,-108 582.5,-108 576.5,-102 576.5,-96 576.5,-96 576.5,-84 576.5,-84 576.5,-78 582.5,-72 588.5,-72 588.5,-72 683.5,-72 683.5,-72 689.5,-72 695.5,-78 695.5,-84 695.5,-84 695.5,-96 695.5,-96 695.5,-102 689.5,-108 683.5,-108"/>
<text text-anchor="middle" x="636" y="-87.5" font-family="sans" font-size="10.00">mds_escape_profiles</text>
</g>
<!-- 10&#45;&gt;13 -->
<g id="edge32" class="edge"><title>10&#45;&gt;13</title>
<path fill="none" stroke="grey" stroke-width="2" d="M757.157,-298.808C721.929,-292.325 679.649,-279.073 651,-252 615.039,-218.017 618.503,-193.171 624,-144 624.958,-135.43 626.762,-126.223 628.685,-117.926"/>
<polygon fill="grey" stroke="grey" stroke-width="2" points="632.132,-118.568 631.131,-108.021 625.336,-116.89 632.132,-118.568"/>
</g>
<!-- 14 -->
<g id="node15" class="node"><title>14</title>
<path fill="none" stroke="#d88556" stroke-width="2" d="M703,-180C703,-180 645,-180 645,-180 639,-180 633,-174 633,-168 633,-168 633,-156 633,-156 633,-150 639,-144 645,-144 645,-144 703,-144 703,-144 709,-144 715,-150 715,-156 715,-156 715,-168 715,-168 715,-174 709,-180 703,-180"/>
<text text-anchor="middle" x="674" y="-159.5" font-family="sans" font-size="10.00">custom_plots</text>
</g>
<!-- 10&#45;&gt;14 -->
<g id="edge34" class="edge"><title>10&#45;&gt;14</title>
<path fill="none" stroke="grey" stroke-width="2" d="M757.431,-301.094C723.217,-295.361 683.692,-282.096 662,-252 649.036,-234.013 654.178,-208.545 661.311,-189.458"/>
<polygon fill="grey" stroke="grey" stroke-width="2" points="664.579,-190.713 665.137,-180.133 658.103,-188.056 664.579,-190.713"/>
</g>
<!-- 16 -->
<g id="node17" class="node"><title>16</title>
<path fill="none" stroke="#59d856" stroke-width="2" d="M1146.5,-180C1146.5,-180 1093.5,-180 1093.5,-180 1087.5,-180 1081.5,-174 1081.5,-168 1081.5,-168 1081.5,-156 1081.5,-156 1081.5,-150 1087.5,-144 1093.5,-144 1093.5,-144 1146.5,-144 1146.5,-144 1152.5,-144 1158.5,-150 1158.5,-156 1158.5,-156 1158.5,-168 1158.5,-168 1158.5,-174 1152.5,-180 1146.5,-180"/>
<text text-anchor="middle" x="1120" y="-159.5" font-family="sans" font-size="10.00">output_pdbs</text>
</g>
<!-- 10&#45;&gt;16 -->
<g id="edge35" class="edge"><title>10&#45;&gt;16</title>
<path fill="none" stroke="grey" stroke-width="2" d="M884.695,-304.96C937.965,-301.936 1013.6,-290.361 1067,-252 1088.24,-236.741 1102.45,-210.097 1110.77,-189.927"/>
<polygon fill="grey" stroke="grey" stroke-width="2" points="1114.13,-190.934 1114.48,-180.345 1107.6,-188.404 1114.13,-190.934"/>
</g>
<!-- 17 -->
<g id="node18" class="node"><title>17</title>
<path fill="none" stroke="#56d8b1" stroke-width="2" d="M865,-180C865,-180 783,-180 783,-180 777,-180 771,-174 771,-168 771,-168 771,-156 771,-156 771,-150 777,-144 783,-144 783,-144 865,-144 865,-144 871,-144 877,-150 877,-156 877,-156 877,-168 877,-168 877,-174 871,-180 865,-180"/>
<text text-anchor="middle" x="824" y="-159.5" font-family="sans" font-size="10.00">natural_mutations</text>
</g>
<!-- 10&#45;&gt;17 -->
<g id="edge38" class="edge"><title>10&#45;&gt;17</title>
<path fill="none" stroke="grey" stroke-width="2" d="M821.362,-287.871C821.873,-263.67 822.812,-219.211 823.421,-190.393"/>
<polygon fill="grey" stroke="grey" stroke-width="2" points="826.925,-190.261 823.637,-180.189 819.926,-190.113 826.925,-190.261"/>
</g>
<!-- 18 -->
<g id="node19" class="node"><title>18</title>
<path fill="none" stroke="#56d8c9" stroke-width="2" d="M402.5,-252C402.5,-252 327.5,-252 327.5,-252 321.5,-252 315.5,-246 315.5,-240 315.5,-240 315.5,-228 315.5,-228 315.5,-222 321.5,-216 327.5,-216 327.5,-216 402.5,-216 402.5,-216 408.5,-216 414.5,-222 414.5,-228 414.5,-228 414.5,-240 414.5,-240 414.5,-246 408.5,-252 402.5,-252"/>
<text text-anchor="middle" x="365" y="-231.5" font-family="sans" font-size="10.00">homolog_escape</text>
</g>
<!-- 10&#45;&gt;18 -->
<g id="edge39" class="edge"><title>10&#45;&gt;18</title>
<path fill="none" stroke="grey" stroke-width="2" d="M757.252,-299.419C680.494,-292.047 547.614,-277.204 424.724,-251.972"/>
<polygon fill="grey" stroke="grey" stroke-width="2" points="425.267,-248.51 414.763,-249.899 423.841,-255.363 425.267,-248.51"/>
</g>
<!-- 19 -->
<g id="node20" class="node"><title>19</title>
<path fill="none" stroke="#d86e56" stroke-width="2" d="M527,-252C527,-252 445,-252 445,-252 439,-252 433,-246 433,-240 433,-240 433,-228 433,-228 433,-222 439,-216 445,-216 445,-216 527,-216 527,-216 533,-216 539,-222 539,-228 539,-228 539,-240 539,-240 539,-246 533,-252 527,-252"/>
<text text-anchor="middle" x="486" y="-231.5" font-family="sans" font-size="10.00">escape_selections</text>
</g>
<!-- 10&#45;&gt;19 -->
<g id="edge40" class="edge"><title>10&#45;&gt;19</title>
<path fill="none" stroke="grey" stroke-width="2" d="M757.445,-293.418C703.016,-283.264 622.631,-267.707 553,-252 551.749,-251.718 550.485,-251.429 549.213,-251.136"/>
<polygon fill="grey" stroke="grey" stroke-width="2" points="549.869,-247.695 539.332,-248.804 548.261,-254.508 549.869,-247.695"/>
</g>
<!-- 20 -->
<g id="node21" class="node"><title>20</title>
<path fill="none" stroke="#56d89a" stroke-width="2" d="M1059,-108C1059,-108 983,-108 983,-108 977,-108 971,-102 971,-96 971,-96 971,-84 971,-84 971,-78 977,-72 983,-72 983,-72 1059,-72 1059,-72 1065,-72 1071,-78 1071,-84 1071,-84 1071,-96 1071,-96 1071,-102 1065,-108 1059,-108"/>
<text text-anchor="middle" x="1021" y="-87.5" font-family="sans" font-size="10.00">make_supp_data</text>
</g>
<!-- 10&#45;&gt;20 -->
<g id="edge42" class="edge"><title>10&#45;&gt;20</title>
<path fill="none" stroke="grey" stroke-width="2" d="M884.571,-303.179C926.613,-298.613 980.043,-285.857 1014,-252 1048.98,-217.12 1039.04,-153.764 1029.5,-117.806"/>
<polygon fill="grey" stroke="grey" stroke-width="2" points="1032.82,-116.683 1026.73,-108.013 1026.08,-118.588 1032.82,-116.683"/>
</g>
<!-- 11&#45;&gt;0 -->
<g id="edge14" class="edge"><title>11&#45;&gt;0</title>
<path fill="none" stroke="grey" stroke-width="2" d="M914.574,-215.713C910.227,-196.829 901.379,-166.304 886,-144 854.954,-98.9754 802.661,-62.8974 765.903,-41.2888"/>
<polygon fill="grey" stroke="grey" stroke-width="2" points="767.327,-38.07 756.915,-36.1103 763.832,-44.1352 767.327,-38.07"/>
</g>
<!-- 11&#45;&gt;12 -->
<g id="edge29" class="edge"><title>11&#45;&gt;12</title>
<path fill="none" stroke="grey" stroke-width="2" d="M933.079,-215.697C940.392,-207.305 949.31,-197.07 957.335,-187.861"/>
<polygon fill="grey" stroke="grey" stroke-width="2" points="960.164,-189.943 964.095,-180.104 954.886,-185.344 960.164,-189.943"/>
</g>
<!-- 11&#45;&gt;17 -->
<g id="edge36" class="edge"><title>11&#45;&gt;17</title>
<path fill="none" stroke="grey" stroke-width="2" d="M894.764,-215.697C882.812,-206.796 868.077,-195.823 855.153,-186.199"/>
<polygon fill="grey" stroke="grey" stroke-width="2" points="857.08,-183.27 846.969,-180.104 852.899,-188.884 857.08,-183.27"/>
</g>
<!-- 12&#45;&gt;0 -->
<g id="edge6" class="edge"><title>12&#45;&gt;0</title>
<path fill="none" stroke="grey" stroke-width="2" d="M971.955,-143.861C962.763,-123.64 944.755,-90.4454 919,-72 878.685,-43.1273 823.443,-29.9806 782.047,-23.9962"/>
<polygon fill="grey" stroke="grey" stroke-width="2" points="782.484,-20.5235 772.106,-22.6571 781.549,-27.4608 782.484,-20.5235"/>
</g>
<!-- 12&#45;&gt;20 -->
<g id="edge41" class="edge"><title>12&#45;&gt;20</title>
<path fill="none" stroke="grey" stroke-width="2" d="M989.382,-143.697C994.265,-135.559 1000.19,-125.689 1005.58,-116.701"/>
<polygon fill="grey" stroke="grey" stroke-width="2" points="1008.59,-118.48 1010.74,-108.104 1002.59,-114.879 1008.59,-118.48"/>
</g>
<!-- 13&#45;&gt;0 -->
<g id="edge12" class="edge"><title>13&#45;&gt;0</title>
<path fill="none" stroke="grey" stroke-width="2" d="M657.753,-71.6966C668.836,-62.8807 682.474,-52.0321 694.49,-42.4742"/>
<polygon fill="grey" stroke="grey" stroke-width="2" points="696.85,-45.0687 702.497,-36.1043 692.493,-39.5905 696.85,-45.0687"/>
</g>
<!-- 14&#45;&gt;0 -->
<g id="edge8" class="edge"><title>14&#45;&gt;0</title>
<path fill="none" stroke="grey" stroke-width="2" d="M685.348,-143.97C691.631,-133.877 699.131,-120.627 704,-108 711.728,-87.9605 716.881,-64.1753 720.018,-46.2372"/>
<polygon fill="grey" stroke="grey" stroke-width="2" points="723.505,-46.603 721.677,-36.1672 716.598,-45.4656 723.505,-46.603"/>
</g>
<!-- 14&#45;&gt;13 -->
<g id="edge31" class="edge"><title>14&#45;&gt;13</title>
<path fill="none" stroke="grey" stroke-width="2" d="M664.607,-143.697C660.235,-135.644 654.943,-125.894 650.105,-116.982"/>
<polygon fill="grey" stroke="grey" stroke-width="2" points="653.132,-115.223 645.285,-108.104 646.98,-118.563 653.132,-115.223"/>
</g>
<!-- 15 -->
<g id="node16" class="node"><title>15</title>
<path fill="none" stroke="#9fd856" stroke-width="2" d="M781,-252C781,-252 683,-252 683,-252 677,-252 671,-246 671,-240 671,-240 671,-228 671,-228 671,-222 677,-216 683,-216 683,-216 781,-216 781,-216 787,-216 793,-222 793,-228 793,-228 793,-240 793,-240 793,-246 787,-252 781,-252"/>
<text text-anchor="middle" x="732" y="-231.5" font-family="sans" font-size="10.00">gisaid_rbd_mutations</text>
</g>
<!-- 15&#45;&gt;0 -->
<g id="edge4" class="edge"><title>15&#45;&gt;0</title>
<path fill="none" stroke="grey" stroke-width="2" d="M731.359,-215.849C729.975,-178.832 726.698,-91.1809 725.024,-46.3863"/>
<polygon fill="grey" stroke="grey" stroke-width="2" points="728.515,-46.0947 724.644,-36.2325 721.52,-46.3563 728.515,-46.0947"/>
</g>
<!-- 15&#45;&gt;14 -->
<g id="edge33" class="edge"><title>15&#45;&gt;14</title>
<path fill="none" stroke="grey" stroke-width="2" d="M717.663,-215.697C710.709,-207.305 702.23,-197.07 694.599,-187.861"/>
<polygon fill="grey" stroke="grey" stroke-width="2" points="697.247,-185.571 688.172,-180.104 691.857,-190.038 697.247,-185.571"/>
</g>
<!-- 15&#45;&gt;17 -->
<g id="edge37" class="edge"><title>15&#45;&gt;17</title>
<path fill="none" stroke="grey" stroke-width="2" d="M754.742,-215.697C766.44,-206.796 780.861,-195.823 793.51,-186.199"/>
<polygon fill="grey" stroke="grey" stroke-width="2" points="795.681,-188.945 801.52,-180.104 791.442,-183.374 795.681,-188.945"/>
</g>
<!-- 16&#45;&gt;0 -->
<g id="edge13" class="edge"><title>16&#45;&gt;0</title>
<path fill="none" stroke="grey" stroke-width="2" d="M1117.34,-143.864C1113.18,-123.323 1103.09,-89.4871 1080,-72 1034.3,-37.3933 871.226,-25.1677 782.51,-21.0183"/>
<polygon fill="grey" stroke="grey" stroke-width="2" points="782.48,-17.5135 772.333,-20.5625 782.167,-24.5065 782.48,-17.5135"/>
</g>
<!-- 17&#45;&gt;0 -->
<g id="edge17" class="edge"><title>17&#45;&gt;0</title>
<path fill="none" stroke="grey" stroke-width="2" d="M816.477,-143.757C807.978,-125.182 793.084,-95.1745 776,-72 768.546,-61.8883 759.231,-51.7947 750.553,-43.1708"/>
<polygon fill="grey" stroke="grey" stroke-width="2" points="752.773,-40.4479 743.153,-36.007 747.904,-45.4772 752.773,-40.4479"/>
</g>
<!-- 18&#45;&gt;0 -->
<g id="edge2" class="edge"><title>18&#45;&gt;0</title>
<path fill="none" stroke="grey" stroke-width="2" d="M374.959,-215.819C395.171,-182.56 444.362,-109.369 506,-72 554.924,-42.3391 619.478,-29.267 665.617,-23.5121"/>
<polygon fill="grey" stroke="grey" stroke-width="2" points="666.228,-26.9646 675.754,-22.3279 665.416,-20.0118 666.228,-26.9646"/>
</g>
<!-- 19&#45;&gt;0 -->
<g id="edge3" class="edge"><title>19&#45;&gt;0</title>
<path fill="none" stroke="grey" stroke-width="2" d="M485.987,-215.969C486.918,-183.296 493.74,-111.553 534,-72 568.867,-37.7448 623.917,-25.2118 665.805,-20.8273"/>
<polygon fill="grey" stroke="grey" stroke-width="2" points="666.242,-24.302 675.88,-19.9014 665.601,-17.3314 666.242,-24.302"/>
</g>
<!-- 20&#45;&gt;0 -->
<g id="edge15" class="edge"><title>20&#45;&gt;0</title>
<path fill="none" stroke="grey" stroke-width="2" d="M970.735,-75.4657C966.097,-74.272 961.465,-73.1004 957,-72 897.709,-57.387 829.568,-42.056 782.356,-31.6639"/>
<polygon fill="grey" stroke="grey" stroke-width="2" points="782.832,-28.185 772.314,-29.4584 781.33,-35.0221 782.832,-28.185"/>
</g>
<!-- 21 -->
<g id="node22" class="node"><title>21</title>
<path fill="none" stroke="#566bd8" stroke-width="2" d="M1313,-108C1313,-108 1227,-108 1227,-108 1221,-108 1215,-102 1215,-96 1215,-96 1215,-84 1215,-84 1215,-78 1221,-72 1227,-72 1227,-72 1313,-72 1313,-72 1319,-72 1325,-78 1325,-84 1325,-84 1325,-96 1325,-96 1325,-102 1319,-108 1313,-108"/>
<text text-anchor="middle" x="1270" y="-87.5" font-family="sans" font-size="10.00">structural_contacts</text>
</g>
<!-- 21&#45;&gt;0 -->
<g id="edge16" class="edge"><title>21&#45;&gt;0</title>
<path fill="none" stroke="grey" stroke-width="2" d="M1214.77,-74.7186C1210.13,-73.7235 1205.49,-72.7998 1201,-72 1051.12,-45.3278 872.207,-29.7309 782.05,-22.9864"/>
<polygon fill="grey" stroke="grey" stroke-width="2" points="782.259,-19.4924 772.028,-22.246 781.743,-26.4734 782.259,-19.4924"/>
</g>
</g>
</svg>
